{"title":"Community S05E01-S05E02 (2Episodes) HDTV 480p x264 AAC E-Subs [G","uid":9427245,"size":160295628,"categoryP":"video","categoryS":"tv_shows","magnet":"?xt=urn:btih:be92377ac883989026dc120937511fa1d7e765ff&amp;dn=Community+S05E01-S05E02+%282Episodes%29+HDTV+480p+x264+AAC+E-Subs+%5BG&amp;tr=udp%3A%2F%2Ftracker.openbittorrent.com%3A80&amp;tr=udp%3A%2F%2Fopen.demonii.com%3A1337&amp;tr=udp%3A%2F%2Ftracker.coppersurfer.tk%3A6969&amp;tr=udp%3A%2F%2Fexodus.desync.com%3A6969","seeders":1,"leechers":1,"uploader":"canc232","files":1,"time":1388732598,"description":"Community S05E01-S05E02 (2Episodes) HDTV 480p x264 AAC E-Subs [GWC]\n\n\n\nSCREENS :\n &lt;a href=&quot;\nhttp://s20.postimg.org/rcah4hf99/Community_S05_E01_S05_E02_480p_x264_AAC_E_Subs_GW.jpg&quot; rel=&quot;nofollow&quot; target=&quot;_NEW&quot;&gt;\nhttp://s20.postimg.org/rcah4hf99/Community_S05_E01_S05_E02_480p_x264_AAC_E_Subs_GW.jpg&lt;/a&gt; &lt;a href=&quot;\nhttp://s20.postimg.org/6e4b6efel/Community_S05_E01_S05_E02_480p_x264_AAC_E_Subs_GW.jpg&quot; rel=&quot;nofollow&quot; target=&quot;_NEW&quot;&gt;\nhttp://s20.postimg.org/6e4b6efel/Community_S05_E01_S05_E02_480p_x264_AAC_E_Subs_GW.jpg&lt;/a&gt; &lt;a href=&quot;\nhttp://s20.postimg.org/jgvcbxg8t/Community_S05_E01_S05_E02_480p_x264_AAC_E_Subs_GW.jpg&quot; rel=&quot;nofollow&quot; target=&quot;_NEW&quot;&gt;\nhttp://s20.postimg.org/jgvcbxg8t/Community_S05_E01_S05_E02_480p_x264_AAC_E_Subs_GW.jpg&lt;/a&gt; &lt;a href=&quot;\nhttp://s20.postimg.org/6bfu5tmd9/Community_S05_E01_S05_E02_480p_x264_AAC_E_Subs_GW.jpg&quot; rel=&quot;nofollow&quot; target=&quot;_NEW&quot;&gt;\nhttp://s20.postimg.org/6bfu5tmd9/Community_S05_E01_S05_E02_480p_x264_AAC_E_Subs_GW.jpg&lt;/a&gt;\n\n\n\nMEDIA INFO :\n\nGeneral \nFormat : MPEG-4 \nFormat profile : Base Media\nFile size : 153 MiB \nDuration : 42mn 24s \nOverall bit rate mode : Variable \nOverall bit rate : 504 Kbps \n\nVideo \nFormat : AVC \nFormat profile : &lt;a class=&quot;__cf_email__&quot; href=&quot;/cdn-cgi/l/email-protection&quot; data-cfemail=&quot;db93b2bcb39b97e8f5eb&quot;&gt;[email&amp;#160;protected]&lt;/a&gt;&lt;script cf-hash='f9e31' type=&quot;text/javascript&quot;&gt;\n/* &lt;![CDATA[ */!function(){try{var t=&quot;currentScript&quot;in document?document.currentScript:function(){for(var t=document.getElementsByTagName(&quot;script&quot;),e=t.length;e--;)if(t[e].getAttribute(&quot;cf-hash&quot;))return t[e]}();if(t&amp;&amp;t.previousSibling){var e,r,n,i,c=t.previousSibling,a=c.getAttribute(&quot;data-cfemail&quot;);if(a){for(e=&quot;&quot;,r=parseInt(a.substr(0,2),16),n=2;a.length-n;n+=2)i=parseInt(a.substr(n,2),16)^r,e+=String.fromCharCode(i);e=document.createTextNode(e),c.parentNode.replaceChild(e,c)}}}catch(u){}}();/* ]]&gt; */&lt;/script&gt; \nFormat settings, CABAC : Yes \nDuration : 42mn 24s \nBit rate : 440 Kbps \nMaximum bit rate : 1 260 Kbps \nWidth : 720 pixels \nHeight : 404 pixels \nStream size : 133 MiB \nTitle : Community S05E01 S05E02 480p x264 AAC E-Subs [GWC] \nWriting library : x264 core \nLanguage : English \n\nAudio \nFormat : AAC \nFormat profile : HE-AAC / LC \nDuration : 42mn 24s \nBit rate mode : Variable \nChannel(s) : 2 channels \nSampling rate : 48.0 KHz / 24.0 KHz\nStream size : 18.2 MiB \nLanguage : English \n\nText \nFormat : Timed Text \nDuration : 42mn 20s \nTitle : English Subtitle by Elderfel/Resync by [GWC] \nLanguage : English","torrent":{"xt":"urn:btih:be92377ac883989026dc120937511fa1d7e765ff","amp;dn":"Community+S05E01-S05E02+%282Episodes%29+HDTV+480p+x264+AAC+E-Subs+%5BG","amp;tr":["udp%3A%2F%2Ftracker.openbittorrent.com%3A80","udp%3A%2F%2Fopen.demonii.com%3A1337","udp%3A%2F%2Ftracker.coppersurfer.tk%3A6969","udp%3A%2F%2Fexodus.desync.com%3A6969"],"infoHash":"be92377ac883989026dc120937511fa1d7e765ff","infoHashBuffer":{"type":"Buffer","data":[190,146,55,122,200,131,152,144,38,220,18,9,55,81,31,161,215,231,101,255]},"announce":[],"urlList":[]}}